<svg fill-opacity="context-fill-opacity" fill="context-fill light-dark(black, white)" height="200" width="200" xmlns="http://www.w3.org/2000/svg" xmlns:xlink="http://www.w3.org/1999/xlink" viewBox="0 0 502.69 502.69" xml:space="preserve"><g stroke-width="0"/><g stroke-linecap="round" stroke-linejoin="round"/><path d="M491.4 12.06c-23.47-23.47-70.4-9.6-145.07 42.67-30.93-16-65.06-25.6-101.33-25.6-57.6 0-112 22.4-152.53 62.93-68.27 68.27-81.07 170.67-38.4 252.8-69.33 99.2-57.6 131.2-42.67 145.07 7.47 7.46 18.13 11.73 29.87 11.73 23.47 0 54.4-13.87 98.13-40.53 7.47-5.34 16-10.67 24.53-17.07 25.6 10.67 53.34 16 81.07 16 57.6 0 112-22.4 152.53-62.93 62.94-62.94 78.94-155.74 46.94-233.6 6.4-8.54 11.73-17.07 18.13-25.6 41.6-64 50.13-104.54 28.8-125.87M41.27 458.99c1.06-8.53 7.46-32 37.33-77.86 4.27 5.33 8.53 10.66 13.87 16 8.53 8.53 18.13 16 27.73 23.46C81.8 446.2 53 459 41.27 459m115.2-64c-11.74-7.46-23.47-16-34.14-26.66a173.8 173.8 0 0 1 0-246.4c32-33.07 75.74-51.2 122.67-51.2s90.67 18.13 123.73 50.13c10.67 10.67 20.27 22.4 26.67 35.2-27.73 36.27-66.13 80-113.07 126.93s-89.6 84.27-125.86 112m212.26-27.73c-33.06 33.07-77.86 52.27-123.73 52.27-13.87 0-27.73-2.14-41.6-5.34 36.27-28.8 74.67-62.93 112-100.26A1306 1306 0 0 0 414.6 203c13.87 57.6-1.07 119.47-45.87 164.27m53.34-246.4c-7.47-10.67-14.94-20.27-24.54-28.8-4.26-4.27-9.6-8.53-13.86-12.8 44.8-29.87 68.26-37.33 76.8-37.33 0 11.73-11.74 39.46-38.4 78.93"/></svg>