<svg xmlns="http://www.w3.org/2000/svg" xmlns:xlink="http://www.w3.org/1999/xlink" width="800" height="800" viewBox="0 0 64 64" enable-background="new 0 0 64 64" xml:space="preserve" fill="#000000"><g stroke-width="0"/><g stroke-linecap="round" stroke-linejoin="round"/><path fill="context-fill light-dark(black, white)" stroke="currentColor" stroke-width="2.2" d="M32 0a32 32 0 1 0 0 64 32 32 0 0 0 0-64zm17.97 31a40 40 0 0 0-3.61-15.67 40 40 0 0 0 7.51-3.85A30 30 0 0 1 61.97 31zM33.33 61.97H33V50.04c3.32.1 6.55.59 9.6 1.47a38 38 0 0 1-9.27 10.47zm11.22-9.83q3.42 1.21 6.52 3.02a30 30 0 0 1-14.18 6.44 40 40 0 0 0 7.66-9.46zm-23.16-.63A38 38 0 0 1 31 50.04v11.93h-.33a38 38 0 0 1-9.28-10.46zm5.72 10.09a30 30 0 0 1-14.18-6.44 38 38 0 0 1 6.52-3.02 40 40 0 0 0 7.66 9.46zM2.03 31a30 30 0 0 1 8.1-19.52 40 40 0 0 0 7.51 3.85A40 40 0 0 0 14.03 31zm41.54-16.8A38 38 0 0 1 33 15.96V2.03h.33A38 38 0 0 1 43.57 14.2zM36.9 2.4a30 30 0 0 1 15.52 7.63 38 38 0 0 1-6.95 3.5A40 40 0 0 0 36.9 2.4zM31 2.03v13.93c-3.68-.1-7.23-.7-10.57-1.76A38 38 0 0 1 30.67 2.03zm-12.47 11.5a38 38 0 0 1-6.95-3.5A30 30 0 0 1 27.12 2.4a40 40 0 0 0-8.58 11.13zm1 2.48A40 40 0 0 0 31 17.98V31H16.03a38 38 0 0 1 3.5-15zM31 33v15.04q-5.54.14-10.61 1.69A38 38 0 0 1 16.02 33zm2 15.04V33h14.97a38 38 0 0 1-4.35 16.73A40 40 0 0 0 33 48.03zM33 31V17.98c4-.1 7.85-.78 11.47-1.97A38 38 0 0 1 47.97 31zM2.03 33h12a40 40 0 0 0 4.44 17.37q-3.75 1.35-7.1 3.4A30 30 0 0 1 2.03 33zm50.6 20.77a40 40 0 0 0-7.1-3.4A40 40 0 0 0 49.97 33h12a30 30 0 0 1-9.34 20.77z"/></svg>